<?xml version="1.0" encoding="UTF-8"?>
<!DOCTYPE svg PUBLIC "-//W3C//DTD SVG 1.1//EN" "http://www.w3.org/Graphics/SVG/1.1/DTD/svg11.dtd">
<!-- Creator: CorelDRAW 2017 -->
<svg xmlns="http://www.w3.org/2000/svg" xml:space="preserve" width="297mm" height="420mm" version="1.1" style="shape-rendering:geometricPrecision; text-rendering:geometricPrecision; image-rendering:optimizeQuality; fill-rule:evenodd; clip-rule:evenodd"
viewBox="0 0 29700 42000"
 xmlns:xlink="http://www.w3.org/1999/xlink">
 <defs>
  <style type="text/css">
   <![CDATA[
    .str0 {stroke:#00A6EC;stroke-width:84.67}
    .fil1 {fill:#00A6EC}
    .fil0 {fill:#00A6EC;fill-rule:nonzero}
   ]]>
  </style>
 </defs>
 <g id="Layer_x0020_1">
  <metadata id="CorelCorpID_0Corel-Layer"/>
  <polygon class="fil0" points="27362,28170 2346,28170 2346,27906 27362,27906 "/>
  <polygon class="fil0" points="27362,29429 2346,29429 2346,29166 27362,29166 "/>
  <polygon class="fil0" points="27362,30688 2346,30688 2346,30425 27362,30425 "/>
  <polygon class="fil0" points="27362,31947 2346,31947 2346,31684 27362,31684 "/>
  <polygon class="fil0" points="27362,33206 2346,33206 2346,32943 27362,32943 "/>
  <path class="fil0" d="M11820 24831l-9606 0 0 -13725 9738 0 0 132c0,2110 855,4019 2237,5402 1382,1382 3292,2237 5402,2237 2182,0 4158,885 5588,2315 1430,1430 2315,3406 2315,5588l0 132 -25148 0 0 -263 24883 0c-35,-2057 -883,-3917 -2236,-5270 -1382,-1382 -3292,-2237 -5402,-2237 -2182,0 -4158,-885 -5588,-2315 -1401,-1401 -2279,-3326 -2313,-5456l-9212 0 0 13199 9343 0 0 263z"/>
  <path class="fil0" d="M26543 11368l-3099 0c-189,0 -361,77 -486,202 -125,125 -202,297 -202,486l0 3099c0,189 77,361 202,486 125,125 297,202 486,202l3099 0c189,0 361,-77 486,-202 125,-125 202,-297 202,-486l0 -3099c0,-189 -77,-361 -202,-486 -125,-125 -297,-202 -486,-202zm-3099 -263l3099 0c262,0 499,107 672,279 172,172 279,410 279,672l0 3099c0,262 -107,499 -279,672 -172,172 -410,279 -672,279l-3099 0c-262,0 -499,-107 -672,-279 -172,-172 -279,-410 -279,-672l0 -3099c0,-262 107,-499 279,-672 172,-172 410,-279 672,-279z"/>
  <circle class="fil1 str0" cx="7880" cy="31816" r="678"/>
  <circle class="fil1 str0" cx="12469" cy="29297" r="678"/>
  <circle class="fil1 str0" cx="4706" cy="26779" r="678"/>
  <circle class="fil1 str0" cx="24049" cy="31816" r="678"/>
  <circle class="fil1 str0" cx="21253" cy="26531" r="678"/>
  <path class="fil0" d="M26575 12597c-15,384 -23,856 -23,1419 0,428 -88,732 -264,912 -149,154 -382,231 -696,231 -113,0 -226,-13 -338,-40l35 -415c86,38 172,58 259,58 168,0 290,-37 366,-110 109,-106 164,-305 164,-598 0,-587 -9,-1073 -29,-1457l526 0z"/>
  <path class="fil0" d="M4690 34861c-29,620 -42,1377 -42,2272 0,716 -143,1216 -426,1497 -285,279 -699,420 -1242,420 -218,0 -429,-21 -634,-64l66 -754c148,59 311,89 488,89 251,0 449,-71 596,-214 146,-142 219,-446 219,-913 0,-937 -17,-1714 -50,-2332l1026 0zm4899 1972c0,626 -210,1154 -630,1589 -421,434 -958,652 -1611,652 -620,0 -1129,-198 -1527,-596 -399,-397 -598,-889 -598,-1476 0,-626 210,-1154 630,-1590 421,-434 958,-651 1611,-651 621,0 1129,198 1528,596 397,397 597,889 597,1476zm-1053 104c0,-400 -110,-732 -331,-997 -220,-265 -496,-397 -829,-397 -319,0 -581,130 -788,391 -207,262 -311,584 -311,965 0,399 110,732 331,998 220,268 497,400 830,400 315,0 576,-131 786,-394 209,-262 312,-585 312,-967zm5307 2029l-1068 0c20,-685 30,-1270 30,-1756l-1587 0c0,454 12,1039 35,1756l-1073 0c32,-669 46,-1384 46,-2145 0,-763 -14,-1417 -46,-1960l1073 0c-29,586 -43,1120 -43,1599l1603 0c0,-438 -13,-971 -38,-1599l1068 0c-30,516 -46,1169 -46,1960 0,812 16,1527 46,2145zm4780 0l-1213 0c0,-139 -89,-513 -266,-1122l-1426 0c-186,599 -279,973 -279,1122l-1139 0c0,-83 254,-754 761,-2016 508,-1262 762,-1957 762,-2088l1452 0c0,121 224,807 674,2058 450,1251 674,1934 674,2046zm-1659 -1794c-333,-1030 -500,-1591 -500,-1683l-58 0c0,87 -173,648 -519,1683l1077 0zm5833 1794l-964 0c0,-105 -289,-543 -864,-1314 -605,-809 -950,-1385 -1034,-1725l-58 0c62,442 92,853 92,1229 0,451 14,1055 42,1810l-926 0c34,-640 50,-1355 50,-2145 0,-774 -16,-1427 -50,-1960l1135 0c0,131 254,563 763,1295 551,784 870,1325 954,1623l62 0c-62,-456 -92,-872 -92,-1249 0,-494 -17,-1051 -50,-1669l941 0c-28,508 -42,1161 -42,1960 0,804 14,1519 42,2145zm4565 0l-964 0c0,-105 -289,-543 -864,-1314 -605,-809 -950,-1385 -1034,-1725l-58 0c62,442 92,853 92,1229 0,451 14,1055 42,1810l-926 0c34,-640 50,-1355 50,-2145 0,-774 -16,-1427 -50,-1960l1135 0c0,131 254,563 763,1295 551,784 870,1325 954,1623l62 0c-62,-456 -92,-872 -92,-1249 0,-494 -17,-1051 -50,-1669l941 0c-28,508 -42,1161 -42,1960 0,804 14,1519 42,2145z"/>
 </g>
</svg>
