<?xml version="1.0" encoding="UTF-8"?>
<!DOCTYPE svg PUBLIC "-//W3C//DTD SVG 1.1//EN" "http://www.w3.org/Graphics/SVG/1.1/DTD/svg11.dtd">
<!-- Creator: CorelDRAW 2017 -->
<svg xmlns="http://www.w3.org/2000/svg" xml:space="preserve" width="297mm" height="420mm" version="1.1" style="shape-rendering:geometricPrecision; text-rendering:geometricPrecision; image-rendering:optimizeQuality; fill-rule:evenodd; clip-rule:evenodd"
viewBox="0 0 29700 42000"
 xmlns:xlink="http://www.w3.org/1999/xlink">
 <defs>
  <style type="text/css">
   <![CDATA[
    .str1 {stroke:#00A6EC;stroke-width:16.93}
    .str0 {stroke:#01D9B7;stroke-width:16.93}
    .fil2 {fill:#00A6EC}
    .fil1 {fill:#01D9B7}
    .fil0 {fill:black;fill-rule:nonzero}
   ]]>
  </style>
 </defs>
 <g id="Layer_x0020_1">
  <metadata id="CorelCorpID_0Corel-Layer"/>
  <polygon class="fil0" points="27185,26418 3063,26418 3063,26164 27185,26164 "/>
  <polygon class="fil0" points="27185,27632 3063,27632 3063,27378 27185,27378 "/>
  <polygon class="fil0" points="27185,28846 3063,28846 3063,28593 27185,28593 "/>
  <polygon class="fil0" points="27185,30061 3063,30061 3063,29807 27185,29807 "/>
  <polygon class="fil0" points="27185,31275 3063,31275 3063,31021 27185,31021 "/>
  <path class="fil0" d="M12198 23198l-9263 0 0 -13235 9389 0 0 127c0,2034 824,3876 2157,5209 1333,1333 3175,2157 5209,2157 2104,0 4009,853 5388,2232 1379,1379 2232,3284 2232,5388l0 127 -24249 0 0 -254 23994 0c-34,-1984 -851,-3777 -2156,-5082 -1333,-1333 -3175,-2157 -5209,-2157 -2104,0 -4009,-853 -5388,-2232 -1351,-1351 -2197,-3207 -2231,-5261l-8883 0 0 12727 9009 0 0 254z"/>
  <path class="fil0" d="M26395 10218l-2988 0c-182,0 -348,75 -468,195 -120,120 -195,286 -195,468l0 2988c0,182 75,348 195,468 120,120 286,195 468,195l2988 0c182,0 348,-75 468,-195 120,-120 195,-286 195,-468l0 -2988c0,-182 -75,-348 -195,-468 -120,-120 -286,-195 -468,-195zm-2988 -254l2988 0c252,0 482,103 648,269 166,166 269,395 269,648l0 2988c0,252 -103,482 -269,648 -166,166 -395,269 -648,269l-2988 0c-252,0 -482,-103 -648,-269 -166,-166 -269,-395 -269,-648l0 -2988c0,-252 103,-482 269,-648 166,-166 395,-269 648,-269z"/>
  <circle class="fil1 str0" cx="8399" cy="29934" r="654"/>
  <circle class="fil2 str1" cx="12824" cy="27505" r="654"/>
  <circle class="fil2 str1" cx="5338" cy="25077" r="654"/>
  <circle class="fil2 str1" cx="23990" cy="29934" r="654"/>
  <circle class="fil1 str0" cx="21294" cy="24838" r="654"/>
  <path class="fil0" d="M26425 11403c-15,370 -22,825 -22,1368 0,412 -85,705 -254,879 -144,148 -368,223 -671,223 -109,0 -218,-13 -325,-39l34 -400c83,37 166,56 249,56 162,0 280,-36 353,-106 105,-102 158,-294 158,-577 0,-566 -9,-1035 -28,-1405l508 0z"/>
  <path class="fil0" d="M5323 32870c-28,598 -40,1328 -40,2191 0,691 -138,1173 -411,1443 -274,269 -674,405 -1198,405 -210,0 -414,-20 -611,-62l63 -727c143,57 300,86 471,86 242,0 433,-68 574,-206 140,-137 211,-430 211,-880 0,-903 -16,-1653 -48,-2249l989 0zm4724 1901c0,603 -202,1113 -607,1532 -406,419 -923,629 -1553,629 -598,0 -1089,-191 -1472,-574 -384,-383 -577,-858 -577,-1423 0,-603 202,-1113 607,-1533 406,-419 923,-627 1553,-627 598,0 1089,191 1474,574 383,383 576,858 576,1423zm-1016 100c0,-386 -106,-706 -319,-961 -212,-255 -478,-383 -799,-383 -307,0 -560,125 -760,377 -200,253 -300,563 -300,931 0,384 106,706 319,963 213,258 479,386 801,386 304,0 555,-127 758,-379 201,-253 301,-564 301,-932zm5118 1957l-1030 0c19,-660 29,-1224 29,-1694l-1530 0c0,438 11,1002 34,1694l-1035 0c30,-645 44,-1334 44,-2068 0,-736 -14,-1366 -44,-1890l1035 0c-28,565 -42,1080 -42,1542l1546 0c0,-422 -13,-936 -37,-1542l1030 0c-29,497 -44,1127 -44,1890 0,783 15,1472 44,2068zm4609 0l-1170 0c0,-134 -86,-495 -257,-1081l-1375 0c-180,578 -269,939 -269,1081l-1098 0c0,-80 245,-727 734,-1944 490,-1217 735,-1887 735,-2014l1400 0c0,116 216,778 650,1985 434,1207 650,1864 650,1973zm-1600 -1730c-321,-993 -482,-1534 -482,-1623l-56 0c0,84 -167,625 -501,1623l1038 0zm5625 1730l-930 0c0,-101 -278,-524 -834,-1267 -583,-780 -916,-1336 -997,-1663l-56 0c59,426 89,822 89,1185 0,435 14,1017 40,1746l-893 0c33,-617 48,-1307 48,-2068 0,-746 -15,-1376 -48,-1890l1094 0c0,126 245,543 736,1248 531,756 839,1278 920,1565l59 0c-59,-440 -89,-841 -89,-1204 0,-477 -16,-1013 -48,-1609l907 0c-27,489 -40,1119 -40,1890 0,775 14,1465 40,2068zm4402 0l-930 0c0,-101 -278,-524 -834,-1267 -583,-780 -916,-1336 -997,-1663l-56 0c59,426 89,822 89,1185 0,435 14,1017 40,1746l-893 0c33,-617 48,-1307 48,-2068 0,-746 -15,-1376 -48,-1890l1094 0c0,126 245,543 736,1248 531,756 839,1278 920,1565l59 0c-59,-440 -89,-841 -89,-1204 0,-477 -16,-1013 -48,-1609l907 0c-27,489 -40,1119 -40,1890 0,775 14,1465 40,2068z"/>
 </g>
</svg>
