<?xml version="1.0" encoding="UTF-8"?>
<!DOCTYPE svg PUBLIC "-//W3C//DTD SVG 1.1//EN" "http://www.w3.org/Graphics/SVG/1.1/DTD/svg11.dtd">
<!-- Creator: CorelDRAW 2017 -->
<svg xmlns="http://www.w3.org/2000/svg" xml:space="preserve" width="297mm" height="420mm" version="1.1" style="shape-rendering:geometricPrecision; text-rendering:geometricPrecision; image-rendering:optimizeQuality; fill-rule:evenodd; clip-rule:evenodd"
viewBox="0 0 29700 42000"
 xmlns:xlink="http://www.w3.org/1999/xlink">
 <defs>
  <style type="text/css">
   <![CDATA[
    .str1 {stroke:#00A6EC;stroke-width:16.93}
    .str0 {stroke:#01D9B7;stroke-width:16.93}
    .fil2 {fill:#00A6EC}
    .fil1 {fill:#01D9B7}
    .fil0 {fill:black;fill-rule:nonzero}
    .fil3 {fill:#00A6EC;fill-rule:nonzero}
   ]]>
  </style>
 </defs>
 <g id="Layer_x0020_1">
  <metadata id="CorelCorpID_0Corel-Layer"/>
  <polygon class="fil0" points="27499,25169 2998,25169 2998,24912 27499,24912 "/>
  <polygon class="fil0" points="27499,26403 2998,26403 2998,26145 27499,26145 "/>
  <polygon class="fil0" points="27499,27636 2998,27636 2998,27378 27499,27378 "/>
  <polygon class="fil0" points="27499,28869 2998,28869 2998,28611 27499,28611 "/>
  <polygon class="fil0" points="27499,30102 2998,30102 2998,29845 27499,29845 "/>
  <path class="fil0" d="M12277 21899l-9408 0 0 -13442 9537 0 0 129c0,2066 837,3937 2191,5291 1354,1354 3224,2191 5291,2191 2137,0 4072,866 5473,2267 1401,1401 2267,3336 2267,5473l0 129 -24630 0 0 -258 24371 0c-34,-2015 -864,-3836 -2190,-5162 -1354,-1354 -3224,-2191 -5291,-2191 -2137,0 -4072,-866 -5473,-2267 -1372,-1372 -2232,-3258 -2266,-5344l-9023 0 0 12927 9150 0 0 258z"/>
  <path class="fil0" d="M26696 8714l-3035 0c-185,0 -354,76 -476,198 -122,122 -198,290 -198,476l0 3035c0,185 76,354 198,476 122,122 290,198 476,198l3035 0c185,0 354,-76 476,-198 122,-122 198,-290 198,-476l0 -3035c0,-185 -76,-354 -198,-476 -122,-122 -290,-198 -476,-198zm-3035 -258l3035 0c256,0 489,105 658,274 169,169 274,402 274,658l0 3035c0,256 -105,489 -274,658 -169,169 -402,274 -658,274l-3035 0c-256,0 -489,-105 -658,-274 -169,-169 -274,-402 -274,-658l0 -3035c0,-256 105,-489 274,-658 169,-169 402,-274 658,-274z"/>
  <circle class="fil1 str0" cx="8418" cy="28740" r="664"/>
  <circle class="fil2 str1" cx="12912" cy="26274" r="664"/>
  <circle class="fil2 str1" cx="5309" cy="23807" r="664"/>
  <circle class="fil2 str1" cx="24254" cy="28740" r="664"/>
  <circle class="fil1 str0" cx="21515" cy="23564" r="664"/>
  <path class="fil3" d="M26727 9918c-15,376 -23,838 -23,1390 0,419 -86,717 -258,893 -146,151 -374,226 -682,226 -111,0 -221,-13 -331,-39l34 -406c84,37 169,57 253,57 164,0 284,-36 358,-108 107,-104 160,-298 160,-586 0,-575 -9,-1051 -28,-1427l516 0z"/>
  <path class="fil3" d="M5293 31723c-28,608 -41,1349 -41,2225 0,701 -140,1191 -418,1466 -279,274 -685,411 -1217,411 -213,0 -420,-21 -621,-63l64 -739c145,58 304,87 478,87 245,0 439,-69 583,-209 143,-139 215,-437 215,-894 0,-917 -17,-1679 -49,-2284l1005 0zm4798 1931c0,613 -206,1131 -617,1556 -412,425 -938,638 -1578,638 -608,0 -1106,-194 -1495,-583 -391,-389 -586,-871 -586,-1445 0,-613 206,-1131 617,-1557 412,-425 938,-637 1578,-637 608,0 1106,194 1497,583 389,389 585,871 585,1445zm-1032 101c0,-392 -108,-717 -324,-976 -216,-259 -486,-389 -812,-389 -312,0 -569,127 -772,383 -203,257 -305,572 -305,946 0,391 108,717 324,978 216,262 487,392 813,392 308,0 564,-129 770,-385 204,-257 306,-573 306,-947zm5198 1987l-1046 0c19,-671 30,-1244 30,-1720l-1555 0c0,444 12,1017 35,1720l-1051 0c31,-655 45,-1355 45,-2101 0,-748 -14,-1388 -45,-1919l1051 0c-28,574 -42,1097 -42,1566l1570 0c0,-429 -13,-951 -37,-1566l1046 0c-30,505 -45,1145 -45,1919 0,795 15,1495 45,2101zm4682 0l-1188 0c0,-136 -87,-502 -261,-1098l-1396 0c-182,587 -274,953 -274,1098l-1115 0c0,-81 249,-739 745,-1975 497,-1236 746,-1917 746,-2045l1422 0c0,118 220,790 660,2016 441,1226 660,1894 660,2004zm-1625 -1757c-326,-1008 -489,-1558 -489,-1648l-56 0c0,85 -170,635 -509,1648l1055 0zm5713 1757l-944 0c0,-103 -283,-532 -847,-1287 -592,-793 -930,-1357 -1012,-1689l-57 0c60,433 90,835 90,1204 0,442 14,1033 41,1773l-907 0c33,-627 49,-1327 49,-2101 0,-758 -15,-1398 -49,-1919l1111 0c0,128 249,551 748,1268 540,768 852,1298 934,1589l60 0c-60,-447 -90,-854 -90,-1223 0,-484 -17,-1029 -49,-1634l921 0c-27,497 -41,1137 -41,1919 0,788 14,1488 41,2101zm4471 0l-944 0c0,-103 -283,-532 -847,-1287 -592,-793 -930,-1357 -1012,-1689l-57 0c60,433 90,835 90,1204 0,442 14,1033 41,1773l-907 0c33,-627 49,-1327 49,-2101 0,-758 -15,-1398 -49,-1919l1111 0c0,128 249,551 748,1268 540,768 852,1298 934,1589l60 0c-60,-447 -90,-854 -90,-1223 0,-484 -17,-1029 -49,-1634l921 0c-27,497 -41,1137 -41,1919 0,788 14,1488 41,2101z"/>
 </g>
</svg>
